<?xml version="1.0" standalone="no"?>
<!DOCTYPE svg PUBLIC "-//W3C//DTD SVG 20010904//EN"
 "http://www.w3.org/TR/2001/REC-SVG-20010904/DTD/svg10.dtd">
<svg version="1.0" xmlns="http://www.w3.org/2000/svg"
 width="512.000000pt" height="512.000000pt" viewBox="0 0 512.000000 512.000000"
 preserveAspectRatio="xMidYMid meet">
<metadata>
Created by potrace 1.11, written by Peter Selinger 2001-2013
</metadata>
<g transform="translate(0.000000,512.000000) scale(0.100000,-0.100000)"
fill="#000000" stroke="none">
<path d="M2389 4546 c-2 -2 -31 -7 -64 -10 -104 -12 -256 -47 -375 -86 -672
-221 -1179 -801 -1315 -1505 -3 -16 -8 -41 -10 -55 -21 -102 -27 -396 -12
-545 36 -361 200 -748 446 -1050 46 -56 237 -240 296 -286 242 -186 530 -323
790 -375 158 -32 229 -39 400 -39 143 0 262 7 320 19 11 2 40 7 65 12 25 4 47
8 50 9 3 1 21 5 40 9 89 20 286 92 395 146 384 189 693 495 888 878 145 283
209 548 213 877 4 342 -60 622 -208 920 -53 106 -172 290 -235 365 -334 394
-743 623 -1258 705 -44 7 -420 17 -426 11z m428 -271 c565 -91 1043 -449 1285
-963 46 -97 112 -292 127 -377 6 -33 13 -71 16 -85 26 -125 26 -418 0 -565
-66 -375 -246 -715 -515 -971 -321 -305 -734 -469 -1180 -467 -138 0 -203 7
-360 39 -483 99 -940 461 -1160 920 -52 107 -124 306 -133 364 -3 19 -10 60
-16 90 -26 124 -34 361 -18 505 53 492 336 962 742 1235 174 117 385 211 550
246 247 53 455 62 662 29z"/>
<path d="M1820 3428 c-85 -13 -171 -60 -232 -127 -199 -221 -105 -564 181
-656 75 -25 199 -17 273 17 169 79 263 260 229 443 -40 214 -236 355 -451 323z"/>
<path d="M3127 3411 c-241 -78 -352 -344 -237 -570 129 -256 492 -292 664 -67
57 75 80 143 83 241 2 78 -2 99 -25 157 -80 198 -291 302 -485 239z"/>
<path d="M1602 2135 c-86 -31 -112 -44 -112 -58 0 -27 85 -193 138 -267 56
-79 199 -224 267 -271 218 -149 417 -212 665 -212 140 0 236 14 355 55 291 99
538 316 675 596 59 120 59 117 3 138 -26 9 -75 28 -107 41 -33 12 -65 23 -71
23 -6 0 -24 -28 -39 -62 -95 -212 -286 -397 -495 -477 -43 -17 -89 -32 -102
-35 -13 -3 -45 -9 -71 -14 -66 -13 -212 -14 -278 -3 -100 18 -113 22 -187 51
-211 81 -378 236 -484 445 l-45 91 -112 -41z"/>
</g>
</svg>
