<?xml version="1.0" encoding="utf-8"?>
<!-- Generator: Adobe Illustrator 24.0.0, SVG Export Plug-In . SVG Version: 6.00 Build 0)  -->
<svg version="1.1" id="Layer_1" xmlns="http://www.w3.org/2000/svg" xmlns:xlink="http://www.w3.org/1999/xlink" x="0px" y="0px"
	 viewBox="0 0 432 288" style="enable-background:new 0 0 432 288;" xml:space="preserve">
<style type="text/css">
	.st0{clip-path:url(#SVGID_3_);}
	.st1{fill:url(#SVGID_4_);}
	.st2{fill:url(#SVGID_5_);}
	.st3{fill:url(#SVGID_6_);}
	.st4{fill:#FFFFFF;}
	.st5{fill:url(#SVGID_7_);}
	.st6{fill:url(#SVGID_8_);}
	.st7{fill:url(#SVGID_9_);}
	.st8{fill:url(#SVGID_10_);}
	.st9{fill:url(#SVGID_11_);}
	.st10{fill:url(#SVGID_12_);}
	.st11{fill:url(#SVGID_13_);}
	.st12{fill:url(#SVGID_14_);}
	.st13{fill:url(#SVGID_15_);}
	.st14{fill:url(#SVGID_16_);}
	.st15{fill:url(#SVGID_17_);}
	.st16{fill:url(#SVGID_18_);}
	.st17{fill:url(#SVGID_19_);}
	.st18{fill:url(#SVGID_20_);}
	.st19{fill:url(#SVGID_21_);}
	.st20{fill:url(#SVGID_22_);}
	.st21{fill:url(#SVGID_23_);}
	.st22{fill:url(#SVGID_24_);}
	.st23{fill:url(#SVGID_25_);}
	.st24{fill:url(#SVGID_26_);}
	.st25{fill:url(#SVGID_27_);}
	.st26{fill:url(#SVGID_28_);}
	.st27{fill:url(#SVGID_29_);}
	.st28{fill:url(#SVGID_30_);}
	.st29{fill:url(#SVGID_31_);}
	.st30{fill:url(#SVGID_32_);}
	.st31{fill:url(#SVGID_33_);}
	.st32{fill:url(#SVGID_34_);}
	.st33{fill:url(#SVGID_35_);}
	.st34{fill:url(#SVGID_36_);}
	.st35{fill:url(#SVGID_37_);}
	.st36{fill:url(#SVGID_38_);}
	.st37{fill:url(#SVGID_39_);}
	.st38{fill:url(#SVGID_40_);}
	.st39{fill:url(#SVGID_41_);}
	.st40{fill:url(#SVGID_42_);}
	.st41{fill:url(#SVGID_43_);}
	.st42{fill:url(#SVGID_44_);}
	.st43{fill:url(#SVGID_45_);}
	.st44{fill:url(#SVGID_46_);}
	.st45{fill:url(#SVGID_47_);}
	.st46{fill:url(#SVGID_48_);}
	.st47{fill:url(#SVGID_49_);}
	.st48{fill:url(#SVGID_50_);}
	.st49{fill:url(#SVGID_51_);}
	.st50{fill:url(#SVGID_52_);}
	.st51{fill:url(#SVGID_53_);}
	.st52{fill:url(#SVGID_54_);}
	.st53{fill:url(#SVGID_55_);}
</style>
<g>
	<g>
		<g>
			<defs>
				<rect id="SVGID_1_" x="0" y="0" width="432" height="288"/>
			</defs>
			<linearGradient id="SVGID_2_" gradientUnits="userSpaceOnUse" x1="276.8299" y1="378.7739" x2="155.8304" y2="-88.2254">
				<stop  offset="0" style="stop-color:#FBFBFB"/>
				<stop  offset="0.419" style="stop-color:#F5F5F5"/>
				<stop  offset="0.9893" style="stop-color:#E4E3E4"/>
				<stop  offset="1" style="stop-color:#E4E3E4"/>
			</linearGradient>
			<use xlink:href="#SVGID_1_"  style="overflow:visible;fill:url(#SVGID_2_);"/>
			<clipPath id="SVGID_3_">
				<use xlink:href="#SVGID_1_"  style="overflow:visible;"/>
			</clipPath>
			<g class="st0">
				<radialGradient id="SVGID_4_" cx="132.6373" cy="20.1908" r="99.9696" gradientUnits="userSpaceOnUse">
					<stop  offset="0" style="stop-color:#B0B0B0"/>
					<stop  offset="0.1455" style="stop-color:#C0C0C0"/>
					<stop  offset="0.5068" style="stop-color:#E2E2E2"/>
					<stop  offset="0.8046" style="stop-color:#F7F7F7"/>
					<stop  offset="1" style="stop-color:#FFFFFF"/>
				</radialGradient>
				<path class="st1" d="M40.02-17.5c-4.74,11.63-7.36,24.35-7.36,37.69c0,55.21,44.76,99.97,99.97,99.97
					c55.21,0,99.97-44.76,99.97-99.97c0-13.34-2.62-26.06-7.36-37.69H40.02z"/>
				<radialGradient id="SVGID_5_" cx="17.085" cy="203.9496" r="140.0732" gradientUnits="userSpaceOnUse">
					<stop  offset="0" style="stop-color:#B0B0B0"/>
					<stop  offset="0.1455" style="stop-color:#C0C0C0"/>
					<stop  offset="0.5068" style="stop-color:#E2E2E2"/>
					<stop  offset="0.8046" style="stop-color:#F7F7F7"/>
					<stop  offset="1" style="stop-color:#FFFFFF"/>
				</radialGradient>
				<path class="st2" d="M92.54,321.98c38.86-24.89,64.62-68.46,64.62-118.03c0-77.36-62.71-140.07-140.07-140.07
					c-24.9,0-48.27,6.5-68.53,17.89v240.22H92.54z"/>
				<g>
					<g>
						<linearGradient id="SVGID_6_" gradientUnits="userSpaceOnUse" x1="-80.1857" y1="44.8177" x2="-32.3523" y2="-3.0156">
							<stop  offset="0" style="stop-color:#FBFBFB"/>
							<stop  offset="0.419" style="stop-color:#F5F5F5"/>
							<stop  offset="0.9893" style="stop-color:#E4E3E4"/>
							<stop  offset="1" style="stop-color:#E4E3E4"/>
						</linearGradient>
						<polygon class="st3" points="-46.11,-6.09 -46.11,27.58 -36.39,10.75 						"/>
						<path class="st4" d="M-45.33-3.16l8.03,13.9l-8.03,13.9V-3.16 M-46.11-6.09v33.68l9.72-16.84L-46.11-6.09L-46.11-6.09z"/>
					</g>
					<g>
						<linearGradient id="SVGID_7_" gradientUnits="userSpaceOnUse" x1="-37.1227" y1="9.82" x2="10.7107" y2="-38.0133">
							<stop  offset="0" style="stop-color:#FBFBFB"/>
							<stop  offset="0.419" style="stop-color:#F5F5F5"/>
							<stop  offset="0.9893" style="stop-color:#E4E3E4"/>
							<stop  offset="1" style="stop-color:#E4E3E4"/>
						</linearGradient>
						<polygon class="st5" points="-46.11,-15.5 -46.11,-10.51 -34.44,9.71 -2.71,9.71 11.85,-15.5 						"/>
						<path class="st4" d="M10.49-14.71L-3.16,8.93h-30.82l-11.34-19.65v-3.99H10.49 M11.85-15.5h-57.96v4.99l11.68,20.23h31.73
							L11.85-15.5L11.85-15.5z"/>
					</g>
					<g>
						<linearGradient id="SVGID_8_" gradientUnits="userSpaceOnUse" x1="8.0407" y1="33.9444" x2="55.8741" y2="-13.889">
							<stop  offset="0" style="stop-color:#FBFBFB"/>
							<stop  offset="0.419" style="stop-color:#F5F5F5"/>
							<stop  offset="0.9893" style="stop-color:#E4E3E4"/>
							<stop  offset="1" style="stop-color:#E4E3E4"/>
						</linearGradient>
						<polygon class="st6" points="14.4,-15.5 -0.75,10.75 15.11,38.22 46.84,38.22 62.71,10.75 47.56,-15.5 						"/>
						<path class="st4" d="M47.1-14.71l14.7,25.46L46.39,37.44H15.57L0.16,10.75l14.7-25.46H47.1 M47.56-15.5H14.4L-0.75,10.75
							l15.86,27.48h31.73l15.86-27.48L47.56-15.5L47.56-15.5z"/>
					</g>
					<g>
						<linearGradient id="SVGID_9_" gradientUnits="userSpaceOnUse" x1="61.2575" y1="9.1003" x2="109.0908" y2="-38.733">
							<stop  offset="0" style="stop-color:#FBFBFB"/>
							<stop  offset="0.419" style="stop-color:#F5F5F5"/>
							<stop  offset="0.9893" style="stop-color:#E4E3E4"/>
							<stop  offset="1" style="stop-color:#E4E3E4"/>
						</linearGradient>
						<polygon class="st7" points="50.11,-15.5 64.66,9.71 96.39,9.71 110.95,-15.5 						"/>
						<path class="st4" d="M109.59-14.71L95.94,8.93H65.12L51.47-14.71H109.59 M110.95-15.5H50.11L64.66,9.71h31.73L110.95-15.5
							L110.95-15.5z"/>
					</g>
					<g>
						<linearGradient id="SVGID_10_" gradientUnits="userSpaceOnUse" x1="107.1406" y1="33.9445" x2="154.974" y2="-13.8889">
							<stop  offset="0" style="stop-color:#FBFBFB"/>
							<stop  offset="0.419" style="stop-color:#F5F5F5"/>
							<stop  offset="0.9893" style="stop-color:#E4E3E4"/>
							<stop  offset="1" style="stop-color:#E4E3E4"/>
						</linearGradient>
						<polygon class="st8" points="113.5,-15.5 98.35,10.75 114.21,38.22 145.94,38.22 161.81,10.75 146.66,-15.5 						"/>
						<path class="st4" d="M146.2-14.71l14.7,25.46l-15.41,26.69h-30.82L99.26,10.75l14.7-25.46H146.2 M146.66-15.5H113.5
							L98.35,10.75l15.86,27.48h31.73l15.86-27.48L146.66-15.5L146.66-15.5z"/>
					</g>
					<g>
						<linearGradient id="SVGID_11_" gradientUnits="userSpaceOnUse" x1="160.3574" y1="9.1003" x2="208.1906" y2="-38.7329">
							<stop  offset="0" style="stop-color:#FBFBFB"/>
							<stop  offset="0.419" style="stop-color:#F5F5F5"/>
							<stop  offset="0.9893" style="stop-color:#E4E3E4"/>
							<stop  offset="1" style="stop-color:#E4E3E4"/>
						</linearGradient>
						<polygon class="st9" points="149.21,-15.5 163.76,9.71 195.49,9.71 210.05,-15.5 						"/>
						<path class="st4" d="M208.69-14.71L195.04,8.93h-30.82l-13.65-23.64H208.69 M210.05-15.5h-60.84l14.56,25.21h31.73
							L210.05-15.5L210.05-15.5z"/>
					</g>
					<g>
						<linearGradient id="SVGID_12_" gradientUnits="userSpaceOnUse" x1="206.2405" y1="33.9444" x2="254.0738" y2="-13.8889">
							<stop  offset="0" style="stop-color:#FBFBFB"/>
							<stop  offset="0.419" style="stop-color:#F5F5F5"/>
							<stop  offset="0.9893" style="stop-color:#E4E3E4"/>
							<stop  offset="1" style="stop-color:#E4E3E4"/>
						</linearGradient>
						<polygon class="st10" points="212.6,-15.5 197.45,10.75 213.31,38.22 245.04,38.22 260.91,10.75 245.76,-15.5 						"/>
						<path class="st4" d="M245.3-14.71L260,10.75l-15.41,26.69h-30.82l-15.41-26.69l14.7-25.46H245.3 M245.76-15.5H212.6
							l-15.15,26.24l15.87,27.48h31.73l15.86-27.48L245.76-15.5L245.76-15.5z"/>
					</g>
					<g>
						<linearGradient id="SVGID_13_" gradientUnits="userSpaceOnUse" x1="-80.1857" y1="102.0689" x2="-32.3522" y2="54.2355">
							<stop  offset="0" style="stop-color:#FBFBFB"/>
							<stop  offset="0.419" style="stop-color:#F5F5F5"/>
							<stop  offset="0.9893" style="stop-color:#E4E3E4"/>
							<stop  offset="1" style="stop-color:#E4E3E4"/>
						</linearGradient>
						<polygon class="st11" points="-46.11,51.16 -46.11,84.84 -36.39,68 						"/>
						<path class="st4" d="M-45.33,54.09L-37.3,68l-8.03,13.9V54.09 M-46.11,51.16v33.68L-36.39,68L-46.11,51.16L-46.11,51.16z"/>
					</g>
					<g>
						<linearGradient id="SVGID_14_" gradientUnits="userSpaceOnUse" x1="-80.1858" y1="159.1236" x2="-32.3522" y2="111.29">
							<stop  offset="0" style="stop-color:#FBFBFB"/>
							<stop  offset="0.419" style="stop-color:#F5F5F5"/>
							<stop  offset="0.9893" style="stop-color:#E4E3E4"/>
							<stop  offset="1" style="stop-color:#E4E3E4"/>
						</linearGradient>
						<polygon class="st12" points="-46.11,108.21 -46.11,141.89 -36.39,125.05 						"/>
						<path class="st4" d="M-45.33,111.15l8.03,13.9l-8.03,13.9V111.15 M-46.11,108.21v33.68l9.72-16.84L-46.11,108.21
							L-46.11,108.21z"/>
					</g>
					<g>
						<linearGradient id="SVGID_15_" gradientUnits="userSpaceOnUse" x1="-41.6397" y1="62.5542" x2="6.1937" y2="14.7208">
							<stop  offset="0" style="stop-color:#FBFBFB"/>
							<stop  offset="0.419" style="stop-color:#F5F5F5"/>
							<stop  offset="0.9893" style="stop-color:#E4E3E4"/>
							<stop  offset="1" style="stop-color:#E4E3E4"/>
						</linearGradient>
						<polygon class="st13" points="-2.71,12.01 -34.44,12.01 -46.11,32.23 -46.11,46.74 -34.44,66.96 -2.71,66.96 13.16,39.49 
													"/>
						<path class="st4" d="M-3.16,12.79l15.41,26.69L-3.16,66.18h-30.82l-11.34-19.65V32.44l11.34-19.65H-3.16 M-2.71,12.01h-31.73
							l-11.68,20.23v14.51l11.68,20.23h31.73l15.86-27.48L-2.71,12.01L-2.71,12.01z"/>
					</g>
					<g>
						<linearGradient id="SVGID_16_" gradientUnits="userSpaceOnUse" x1="-41.6396" y1="119.6088" x2="6.1938" y2="71.7754">
							<stop  offset="0" style="stop-color:#FBFBFB"/>
							<stop  offset="0.419" style="stop-color:#F5F5F5"/>
							<stop  offset="0.9893" style="stop-color:#E4E3E4"/>
							<stop  offset="1" style="stop-color:#E4E3E4"/>
						</linearGradient>
						<polygon class="st14" points="-2.71,69.06 -34.44,69.06 -46.11,89.29 -46.11,103.79 -34.44,124.02 -2.71,124.02 13.16,96.54 
													"/>
						<path class="st4" d="M-3.16,69.85l15.41,26.69l-15.41,26.69h-30.82l-11.34-19.65V89.5l11.34-19.65H-3.16 M-2.71,69.06h-31.73
							l-11.68,20.23v14.51l11.68,20.23h31.73l15.86-27.48L-2.71,69.06L-2.71,69.06z"/>
					</g>
					<g>
						<linearGradient id="SVGID_17_" gradientUnits="userSpaceOnUse" x1="7.9102" y1="91.0651" x2="55.7436" y2="43.2317">
							<stop  offset="0" style="stop-color:#FBFBFB"/>
							<stop  offset="0.419" style="stop-color:#F5F5F5"/>
							<stop  offset="0.9893" style="stop-color:#E4E3E4"/>
							<stop  offset="1" style="stop-color:#E4E3E4"/>
						</linearGradient>
						<polygon class="st15" points="46.84,40.52 15.11,40.52 -0.75,68 15.11,95.48 46.84,95.48 62.71,68 						"/>
						<path class="st4" d="M46.39,41.3L61.8,68L46.39,94.69H15.57L0.16,68L15.57,41.3H46.39 M46.84,40.52H15.11L-0.75,68
							l15.86,27.48h31.73L62.71,68L46.84,40.52L46.84,40.52z"/>
					</g>
					<g>
						<linearGradient id="SVGID_18_" gradientUnits="userSpaceOnUse" x1="7.9102" y1="148.1196" x2="55.7436" y2="100.2862">
							<stop  offset="0" style="stop-color:#FBFBFB"/>
							<stop  offset="0.419" style="stop-color:#F5F5F5"/>
							<stop  offset="0.9893" style="stop-color:#E4E3E4"/>
							<stop  offset="1" style="stop-color:#E4E3E4"/>
						</linearGradient>
						<polygon class="st16" points="46.84,97.57 15.11,97.57 -0.75,125.05 15.11,152.53 46.84,152.53 62.71,125.05 						"/>
						<path class="st4" d="M46.39,98.36l15.41,26.69l-15.41,26.69H15.57L0.16,125.05l15.41-26.69H46.39 M46.84,97.57H15.11
							l-15.86,27.48l15.86,27.48h31.73l15.86-27.48L46.84,97.57L46.84,97.57z"/>
					</g>
					<g>
						<linearGradient id="SVGID_19_" gradientUnits="userSpaceOnUse" x1="57.4603" y1="62.5542" x2="105.2936" y2="14.7208">
							<stop  offset="0" style="stop-color:#FBFBFB"/>
							<stop  offset="0.419" style="stop-color:#F5F5F5"/>
							<stop  offset="0.9893" style="stop-color:#E4E3E4"/>
							<stop  offset="1" style="stop-color:#E4E3E4"/>
						</linearGradient>
						<polygon class="st17" points="96.39,12.01 64.66,12.01 48.8,39.49 64.66,66.96 96.39,66.96 112.26,39.49 						"/>
						<path class="st4" d="M95.94,12.79l15.41,26.69L95.94,66.18H65.12L49.71,39.49l15.41-26.69H95.94 M96.39,12.01H64.66
							L48.8,39.49l15.86,27.48h31.73l15.86-27.48L96.39,12.01L96.39,12.01z"/>
					</g>
					<g>
						<linearGradient id="SVGID_20_" gradientUnits="userSpaceOnUse" x1="57.4603" y1="119.6088" x2="105.2936" y2="71.7754">
							<stop  offset="0" style="stop-color:#FBFBFB"/>
							<stop  offset="0.419" style="stop-color:#F5F5F5"/>
							<stop  offset="0.9893" style="stop-color:#E4E3E4"/>
							<stop  offset="1" style="stop-color:#E4E3E4"/>
						</linearGradient>
						<polygon class="st18" points="96.39,69.06 64.66,69.06 48.8,96.54 64.66,124.02 96.39,124.02 112.26,96.54 						"/>
						<path class="st4" d="M95.94,69.85l15.41,26.69l-15.41,26.69H65.12L49.71,96.54l15.41-26.69H95.94 M96.39,69.06H64.66
							L48.8,96.54l15.86,27.48h31.73l15.86-27.48L96.39,69.06L96.39,69.06z"/>
					</g>
					<g>
						<linearGradient id="SVGID_21_" gradientUnits="userSpaceOnUse" x1="107.0101" y1="91.0651" x2="154.8436" y2="43.2317">
							<stop  offset="0" style="stop-color:#FBFBFB"/>
							<stop  offset="0.419" style="stop-color:#F5F5F5"/>
							<stop  offset="0.9893" style="stop-color:#E4E3E4"/>
							<stop  offset="1" style="stop-color:#E4E3E4"/>
						</linearGradient>
						<polygon class="st19" points="145.94,40.52 114.21,40.52 98.35,68 114.21,95.48 145.94,95.48 161.81,68 						"/>
						<path class="st4" d="M145.49,41.3L160.9,68l-15.41,26.69h-30.82L99.26,68l15.41-26.69H145.49 M145.94,40.52h-31.73L98.35,68
							l15.86,27.48h31.73L161.81,68L145.94,40.52L145.94,40.52z"/>
					</g>
					<g>
						<linearGradient id="SVGID_22_" gradientUnits="userSpaceOnUse" x1="107.0101" y1="148.1196" x2="154.8436" y2="100.2862">
							<stop  offset="0" style="stop-color:#FBFBFB"/>
							<stop  offset="0.419" style="stop-color:#F5F5F5"/>
							<stop  offset="0.9893" style="stop-color:#E4E3E4"/>
							<stop  offset="1" style="stop-color:#E4E3E4"/>
						</linearGradient>
						<polygon class="st20" points="145.94,97.57 114.21,97.57 98.35,125.05 114.21,152.53 145.94,152.53 161.81,125.05 						"/>
						<path class="st4" d="M145.49,98.36l15.41,26.69l-15.41,26.69h-30.82l-15.41-26.69l15.41-26.69H145.49 M145.94,97.57h-31.73
							l-15.86,27.48l15.86,27.48h31.73l15.87-27.48L145.94,97.57L145.94,97.57z"/>
					</g>
					<g>
						<linearGradient id="SVGID_23_" gradientUnits="userSpaceOnUse" x1="156.5602" y1="62.5542" x2="204.3935" y2="14.7208">
							<stop  offset="0" style="stop-color:#FBFBFB"/>
							<stop  offset="0.419" style="stop-color:#F5F5F5"/>
							<stop  offset="0.9893" style="stop-color:#E4E3E4"/>
							<stop  offset="1" style="stop-color:#E4E3E4"/>
						</linearGradient>
						<polygon class="st21" points="195.49,12.01 163.76,12.01 147.9,39.49 163.76,66.96 195.49,66.96 211.36,39.49 						"/>
						<path class="st4" d="M195.04,12.79l15.41,26.69l-15.41,26.69h-30.82l-15.41-26.69l15.41-26.69H195.04 M195.49,12.01h-31.73
							L147.9,39.49l15.87,27.48h31.73l15.87-27.48L195.49,12.01L195.49,12.01z"/>
					</g>
					<g>
						<linearGradient id="SVGID_24_" gradientUnits="userSpaceOnUse" x1="404.3098" y1="148.1196" x2="452.1431" y2="100.2863">
							<stop  offset="0" style="stop-color:#FBFBFB"/>
							<stop  offset="0.419" style="stop-color:#F5F5F5"/>
							<stop  offset="0.9893" style="stop-color:#E4E3E4"/>
							<stop  offset="1" style="stop-color:#E4E3E4"/>
						</linearGradient>
						<polygon class="st22" points="453.36,115.1 443.24,97.57 411.51,97.57 395.65,125.05 411.51,152.53 443.24,152.53 453.36,135 
													"/>
						<path class="st4" d="M442.79,98.36l9.79,16.95v19.48l-9.79,16.95h-30.82l-15.41-26.69l15.41-26.69H442.79 M443.24,97.57
							h-31.73l-15.86,27.48l15.86,27.48h31.73L453.36,135V115.1L443.24,97.57L443.24,97.57z"/>
					</g>
					<g>
						<linearGradient id="SVGID_25_" gradientUnits="userSpaceOnUse" x1="442.0764" y1="107.8254" x2="489.9101" y2="59.9918">
							<stop  offset="0" style="stop-color:#FBFBFB"/>
							<stop  offset="0.419" style="stop-color:#F5F5F5"/>
							<stop  offset="0.9893" style="stop-color:#E4E3E4"/>
							<stop  offset="1" style="stop-color:#E4E3E4"/>
						</linearGradient>
						<polygon class="st23" points="453.36,82.4 445.2,96.54 453.36,110.68 						"/>
						<path class="st4" d="M452.57,85.34v22.41l-6.47-11.2L452.57,85.34 M453.36,82.4l-8.16,14.14l8.16,14.14V82.4L453.36,82.4z"/>
					</g>
					<g>
						<linearGradient id="SVGID_26_" gradientUnits="userSpaceOnUse" x1="-80.1857" y1="216.3746" x2="-32.3522" y2="168.5412">
							<stop  offset="0" style="stop-color:#FBFBFB"/>
							<stop  offset="0.419" style="stop-color:#F5F5F5"/>
							<stop  offset="0.9893" style="stop-color:#E4E3E4"/>
							<stop  offset="1" style="stop-color:#E4E3E4"/>
						</linearGradient>
						<polygon class="st24" points="-46.11,165.46 -46.11,199.14 -36.39,182.3 						"/>
						<path class="st4" d="M-45.33,168.4l8.03,13.9l-8.03,13.9V168.4 M-46.11,165.46v33.68l9.72-16.84L-46.11,165.46L-46.11,165.46z
							"/>
					</g>
					<g>
						<linearGradient id="SVGID_27_" gradientUnits="userSpaceOnUse" x1="-80.1857" y1="273.4291" x2="-32.3522" y2="225.5957">
							<stop  offset="0" style="stop-color:#FBFBFB"/>
							<stop  offset="0.419" style="stop-color:#F5F5F5"/>
							<stop  offset="0.9893" style="stop-color:#E4E3E4"/>
							<stop  offset="1" style="stop-color:#E4E3E4"/>
						</linearGradient>
						<polygon class="st25" points="-46.11,222.52 -46.11,256.2 -36.39,239.36 						"/>
						<path class="st4" d="M-45.33,225.45l8.03,13.9l-8.03,13.9V225.45 M-46.11,222.52v33.68l9.72-16.84L-46.11,222.52
							L-46.11,222.52z"/>
					</g>
					<g>
						<linearGradient id="SVGID_28_" gradientUnits="userSpaceOnUse" x1="-41.6396" y1="176.8599" x2="6.1938" y2="129.0265">
							<stop  offset="0" style="stop-color:#FBFBFB"/>
							<stop  offset="0.419" style="stop-color:#F5F5F5"/>
							<stop  offset="0.9893" style="stop-color:#E4E3E4"/>
							<stop  offset="1" style="stop-color:#E4E3E4"/>
						</linearGradient>
						<polygon class="st26" points="-2.71,126.31 -34.44,126.31 -46.11,146.54 -46.11,161.04 -34.44,181.27 -2.71,181.27 
							13.16,153.79 						"/>
						<path class="st4" d="M-3.16,127.1l15.41,26.69l-15.41,26.69h-30.82l-11.34-19.65v-14.08l11.34-19.65H-3.16 M-2.71,126.31
							h-31.73l-11.68,20.23v14.51l11.68,20.23h31.73l15.86-27.48L-2.71,126.31L-2.71,126.31z"/>
					</g>
					<g>
						<linearGradient id="SVGID_29_" gradientUnits="userSpaceOnUse" x1="-41.6397" y1="233.9144" x2="6.1937" y2="186.081">
							<stop  offset="0" style="stop-color:#FBFBFB"/>
							<stop  offset="0.419" style="stop-color:#F5F5F5"/>
							<stop  offset="0.9893" style="stop-color:#E4E3E4"/>
							<stop  offset="1" style="stop-color:#E4E3E4"/>
						</linearGradient>
						<polygon class="st27" points="-2.71,183.37 -34.44,183.37 -46.11,203.59 -46.11,218.1 -34.44,238.32 -2.71,238.32 
							13.16,210.85 						"/>
						<path class="st4" d="M-3.16,184.15l15.41,26.69l-15.41,26.69h-30.82l-11.34-19.65V203.8l11.34-19.65H-3.16 M-2.71,183.37
							h-31.73l-11.68,20.23v14.51l11.68,20.23h31.73l15.86-27.48L-2.71,183.37L-2.71,183.37z"/>
					</g>
					<g>
						<linearGradient id="SVGID_30_" gradientUnits="userSpaceOnUse" x1="7.9102" y1="205.3708" x2="55.7436" y2="157.5374">
							<stop  offset="0" style="stop-color:#FBFBFB"/>
							<stop  offset="0.419" style="stop-color:#F5F5F5"/>
							<stop  offset="0.9893" style="stop-color:#E4E3E4"/>
							<stop  offset="1" style="stop-color:#E4E3E4"/>
						</linearGradient>
						<polygon class="st28" points="46.84,154.82 15.11,154.82 -0.75,182.3 15.11,209.78 46.84,209.78 62.71,182.3 						"/>
						<path class="st4" d="M46.39,155.61L61.8,182.3l-15.41,26.69H15.57L0.16,182.3l15.41-26.69H46.39 M46.84,154.82H15.11
							L-0.75,182.3l15.86,27.48h31.73l15.86-27.48L46.84,154.82L46.84,154.82z"/>
					</g>
					<g>
						<linearGradient id="SVGID_31_" gradientUnits="userSpaceOnUse" x1="7.9102" y1="262.4253" x2="55.7436" y2="214.5919">
							<stop  offset="0" style="stop-color:#FBFBFB"/>
							<stop  offset="0.419" style="stop-color:#F5F5F5"/>
							<stop  offset="0.9893" style="stop-color:#E4E3E4"/>
							<stop  offset="1" style="stop-color:#E4E3E4"/>
						</linearGradient>
						<polygon class="st29" points="46.84,211.88 15.11,211.88 -0.75,239.36 15.11,266.84 46.84,266.84 62.71,239.36 						"/>
						<path class="st4" d="M46.39,212.66l15.41,26.69l-15.41,26.69H15.57L0.16,239.36l15.41-26.69H46.39 M46.84,211.88H15.11
							l-15.86,27.48l15.86,27.48h31.73l15.86-27.48L46.84,211.88L46.84,211.88z"/>
					</g>
					<g>
						<linearGradient id="SVGID_32_" gradientUnits="userSpaceOnUse" x1="57.4603" y1="176.8599" x2="105.2936" y2="129.0265">
							<stop  offset="0" style="stop-color:#FBFBFB"/>
							<stop  offset="0.419" style="stop-color:#F5F5F5"/>
							<stop  offset="0.9893" style="stop-color:#E4E3E4"/>
							<stop  offset="1" style="stop-color:#E4E3E4"/>
						</linearGradient>
						<polygon class="st30" points="96.39,126.31 64.66,126.31 48.8,153.79 64.66,181.27 96.39,181.27 112.26,153.79 						"/>
						<path class="st4" d="M95.94,127.1l15.41,26.69l-15.41,26.69H65.12l-15.41-26.69l15.41-26.69H95.94 M96.39,126.31H64.66
							L48.8,153.79l15.86,27.48h31.73l15.86-27.48L96.39,126.31L96.39,126.31z"/>
					</g>
					<g>
						<linearGradient id="SVGID_33_" gradientUnits="userSpaceOnUse" x1="57.4603" y1="233.9144" x2="105.2936" y2="186.0811">
							<stop  offset="0" style="stop-color:#FBFBFB"/>
							<stop  offset="0.419" style="stop-color:#F5F5F5"/>
							<stop  offset="0.9893" style="stop-color:#E4E3E4"/>
							<stop  offset="1" style="stop-color:#E4E3E4"/>
						</linearGradient>
						<polygon class="st31" points="96.39,183.37 64.66,183.37 48.8,210.85 64.66,238.32 96.39,238.32 112.26,210.85 						"/>
						<path class="st4" d="M95.94,184.15l15.41,26.69l-15.41,26.69H65.12l-15.41-26.69l15.41-26.69H95.94 M96.39,183.37H64.66
							L48.8,210.85l15.86,27.48h31.73l15.86-27.48L96.39,183.37L96.39,183.37z"/>
					</g>
					<g>
						<linearGradient id="SVGID_34_" gradientUnits="userSpaceOnUse" x1="107.0101" y1="205.3708" x2="154.8436" y2="157.5374">
							<stop  offset="0" style="stop-color:#FBFBFB"/>
							<stop  offset="0.419" style="stop-color:#F5F5F5"/>
							<stop  offset="0.9893" style="stop-color:#E4E3E4"/>
							<stop  offset="1" style="stop-color:#E4E3E4"/>
						</linearGradient>
						<polygon class="st32" points="145.94,154.82 114.21,154.82 98.35,182.3 114.21,209.78 145.94,209.78 161.81,182.3 						"/>
						<path class="st4" d="M145.49,155.61l15.41,26.69l-15.41,26.69h-30.82L99.26,182.3l15.41-26.69H145.49 M145.94,154.82h-31.73
							L98.35,182.3l15.86,27.48h31.73l15.87-27.48L145.94,154.82L145.94,154.82z"/>
					</g>
					<g>
						<linearGradient id="SVGID_35_" gradientUnits="userSpaceOnUse" x1="305.21" y1="262.4253" x2="353.0433" y2="214.5919">
							<stop  offset="0" style="stop-color:#FBFBFB"/>
							<stop  offset="0.419" style="stop-color:#F5F5F5"/>
							<stop  offset="0.9893" style="stop-color:#E4E3E4"/>
							<stop  offset="1" style="stop-color:#E4E3E4"/>
						</linearGradient>
						<polygon class="st33" points="344.14,211.88 312.41,211.88 296.55,239.36 312.41,266.84 344.14,266.84 360.01,239.36 						
							"/>
						<path class="st4" d="M343.69,212.66l15.41,26.69l-15.41,26.69h-30.82l-15.41-26.69l15.41-26.69H343.69 M344.14,211.88h-31.73
							l-15.86,27.48l15.86,27.48h31.73l15.86-27.48L344.14,211.88L344.14,211.88z"/>
					</g>
					<g>
						<linearGradient id="SVGID_36_" gradientUnits="userSpaceOnUse" x1="354.7599" y1="176.8599" x2="402.5933" y2="129.0265">
							<stop  offset="0" style="stop-color:#FBFBFB"/>
							<stop  offset="0.419" style="stop-color:#F5F5F5"/>
							<stop  offset="0.9893" style="stop-color:#E4E3E4"/>
							<stop  offset="1" style="stop-color:#E4E3E4"/>
						</linearGradient>
						<polygon class="st34" points="393.69,126.31 361.96,126.31 346.1,153.79 361.96,181.27 393.69,181.27 409.56,153.79 						"/>
						<path class="st4" d="M393.24,127.1l15.41,26.69l-15.41,26.69h-30.82l-15.41-26.69l15.41-26.69H393.24 M393.69,126.31h-31.73
							l-15.86,27.48l15.86,27.48h31.73l15.86-27.48L393.69,126.31L393.69,126.31z"/>
					</g>
					<g>
						<linearGradient id="SVGID_37_" gradientUnits="userSpaceOnUse" x1="354.7599" y1="233.9144" x2="402.5932" y2="186.0811">
							<stop  offset="0" style="stop-color:#FBFBFB"/>
							<stop  offset="0.419" style="stop-color:#F5F5F5"/>
							<stop  offset="0.9893" style="stop-color:#E4E3E4"/>
							<stop  offset="1" style="stop-color:#E4E3E4"/>
						</linearGradient>
						<polygon class="st35" points="393.69,183.37 361.96,183.37 346.1,210.85 361.96,238.32 393.69,238.32 409.56,210.85 						"/>
						<path class="st4" d="M393.24,184.15l15.41,26.69l-15.41,26.69h-30.82l-15.41-26.69l15.41-26.69H393.24 M393.69,183.37h-31.73
							l-15.86,27.48l15.86,27.48h31.73l15.86-27.48L393.69,183.37L393.69,183.37z"/>
					</g>
					<g>
						<linearGradient id="SVGID_38_" gradientUnits="userSpaceOnUse" x1="404.3098" y1="205.3708" x2="452.1431" y2="157.5375">
							<stop  offset="0" style="stop-color:#FBFBFB"/>
							<stop  offset="0.419" style="stop-color:#F5F5F5"/>
							<stop  offset="0.9893" style="stop-color:#E4E3E4"/>
							<stop  offset="1" style="stop-color:#E4E3E4"/>
						</linearGradient>
						<polygon class="st36" points="453.36,172.35 443.24,154.82 411.51,154.82 395.65,182.3 411.51,209.78 443.24,209.78 
							453.36,192.26 						"/>
						<path class="st4" d="M442.79,155.61l9.79,16.95v19.48l-9.79,16.95h-30.82l-15.41-26.69l15.41-26.69H442.79 M443.24,154.82
							h-31.73l-15.86,27.48l15.86,27.48h31.73l10.12-17.53v-19.91L443.24,154.82L443.24,154.82z"/>
					</g>
					<g>
						<linearGradient id="SVGID_39_" gradientUnits="userSpaceOnUse" x1="404.3098" y1="262.4253" x2="452.1431" y2="214.592">
							<stop  offset="0" style="stop-color:#FBFBFB"/>
							<stop  offset="0.419" style="stop-color:#F5F5F5"/>
							<stop  offset="0.9893" style="stop-color:#E4E3E4"/>
							<stop  offset="1" style="stop-color:#E4E3E4"/>
						</linearGradient>
						<polygon class="st37" points="453.36,229.4 443.24,211.88 411.51,211.88 395.65,239.36 411.51,266.84 443.24,266.84 
							453.36,249.31 						"/>
						<path class="st4" d="M442.79,212.66l9.79,16.95v19.48l-9.79,16.95h-30.82l-15.41-26.69l15.41-26.69H442.79 M443.24,211.88
							h-31.73l-15.86,27.48l15.86,27.48h31.73l10.12-17.53V229.4L443.24,211.88L443.24,211.88z"/>
					</g>
					<g>
						<linearGradient id="SVGID_40_" gradientUnits="userSpaceOnUse" x1="442.0765" y1="165.0766" x2="489.9101" y2="117.243">
							<stop  offset="0" style="stop-color:#FBFBFB"/>
							<stop  offset="0.419" style="stop-color:#F5F5F5"/>
							<stop  offset="0.9893" style="stop-color:#E4E3E4"/>
							<stop  offset="1" style="stop-color:#E4E3E4"/>
						</linearGradient>
						<polygon class="st38" points="453.36,139.65 445.2,153.79 453.36,167.93 						"/>
						<path class="st4" d="M452.57,142.59V165l-6.47-11.2L452.57,142.59 M453.36,139.65l-8.16,14.14l8.16,14.14V139.65
							L453.36,139.65z"/>
					</g>
					<g>
						<linearGradient id="SVGID_41_" gradientUnits="userSpaceOnUse" x1="442.0764" y1="222.1311" x2="489.9101" y2="174.2975">
							<stop  offset="0" style="stop-color:#FBFBFB"/>
							<stop  offset="0.419" style="stop-color:#F5F5F5"/>
							<stop  offset="0.9893" style="stop-color:#E4E3E4"/>
							<stop  offset="1" style="stop-color:#E4E3E4"/>
						</linearGradient>
						<polygon class="st39" points="453.36,196.71 445.2,210.85 453.36,224.98 						"/>
						<path class="st4" d="M452.57,199.64v22.41l-6.47-11.2L452.57,199.64 M453.36,196.71l-8.16,14.14l8.16,14.14V196.71
							L453.36,196.71z"/>
					</g>
					<g>
						<linearGradient id="SVGID_42_" gradientUnits="userSpaceOnUse" x1="-80.1858" y1="330.6804" x2="-32.3522" y2="282.8468">
							<stop  offset="0" style="stop-color:#FBFBFB"/>
							<stop  offset="0.419" style="stop-color:#F5F5F5"/>
							<stop  offset="0.9893" style="stop-color:#E4E3E4"/>
							<stop  offset="1" style="stop-color:#E4E3E4"/>
						</linearGradient>
						<polygon class="st40" points="-46.11,279.77 -46.11,313.45 -36.39,296.61 						"/>
						<path class="st4" d="M-45.33,282.7l8.03,13.9l-8.03,13.9V282.7 M-46.11,279.77v33.68l9.72-16.84L-46.11,279.77L-46.11,279.77z
							"/>
					</g>
					<g>
						<linearGradient id="SVGID_43_" gradientUnits="userSpaceOnUse" x1="-41.6397" y1="291.1656" x2="6.1937" y2="243.3322">
							<stop  offset="0" style="stop-color:#FBFBFB"/>
							<stop  offset="0.419" style="stop-color:#F5F5F5"/>
							<stop  offset="0.9893" style="stop-color:#E4E3E4"/>
							<stop  offset="1" style="stop-color:#E4E3E4"/>
						</linearGradient>
						<polygon class="st41" points="-2.71,240.62 -34.44,240.62 -46.11,260.84 -46.11,275.35 -34.44,295.58 -2.71,295.58 
							13.16,268.1 						"/>
						<path class="st4" d="M-3.16,241.41l15.41,26.69l-15.41,26.69h-30.82l-11.34-19.65v-14.08l11.34-19.65H-3.16 M-2.71,240.62
							h-31.73l-11.68,20.23v14.51l11.68,20.23h31.73l15.86-27.48L-2.71,240.62L-2.71,240.62z"/>
					</g>
					<g>
						<linearGradient id="SVGID_44_" gradientUnits="userSpaceOnUse" x1="-45.7921" y1="344.0677" x2="2.0415" y2="296.2341">
							<stop  offset="0" style="stop-color:#FBFBFB"/>
							<stop  offset="0.419" style="stop-color:#F5F5F5"/>
							<stop  offset="0.9893" style="stop-color:#E4E3E4"/>
							<stop  offset="1" style="stop-color:#E4E3E4"/>
						</linearGradient>
						<polygon class="st42" points="11.33,321.98 -2.71,297.67 -34.44,297.67 -46.11,317.9 -46.11,321.98 						"/>
						<path class="st4" d="M-3.16,298.46L9.97,321.2h-55.29v-3.09l11.34-19.65H-3.16 M-2.71,297.67h-31.73l-11.68,20.23v4.09h57.44
							L-2.71,297.67L-2.71,297.67z"/>
					</g>
					<g>
						<linearGradient id="SVGID_45_" gradientUnits="userSpaceOnUse" x1="7.6882" y1="319.4543" x2="55.5216" y2="271.6209">
							<stop  offset="0" style="stop-color:#FBFBFB"/>
							<stop  offset="0.419" style="stop-color:#F5F5F5"/>
							<stop  offset="0.9893" style="stop-color:#E4E3E4"/>
							<stop  offset="1" style="stop-color:#E4E3E4"/>
						</linearGradient>
						<polygon class="st43" points="48.06,321.98 62.71,296.61 46.84,269.13 15.11,269.13 -0.75,296.61 13.9,321.98 						"/>
						<path class="st4" d="M46.39,269.92l15.41,26.69L47.6,321.2H14.35l-14.2-24.59l15.41-26.69H46.39 M46.84,269.13H15.11
							l-15.86,27.48l14.65,25.38h34.16l14.65-25.38L46.84,269.13L46.84,269.13z"/>
					</g>
					<g>
						<linearGradient id="SVGID_46_" gradientUnits="userSpaceOnUse" x1="57.4603" y1="291.1656" x2="105.2936" y2="243.3322">
							<stop  offset="0" style="stop-color:#FBFBFB"/>
							<stop  offset="0.419" style="stop-color:#F5F5F5"/>
							<stop  offset="0.9893" style="stop-color:#E4E3E4"/>
							<stop  offset="1" style="stop-color:#E4E3E4"/>
						</linearGradient>
						<polygon class="st44" points="96.39,240.62 64.66,240.62 48.8,268.1 64.66,295.58 96.39,295.58 112.26,268.1 						"/>
						<path class="st4" d="M95.94,241.41l15.41,26.69l-15.41,26.69H65.12L49.71,268.1l15.41-26.69H95.94 M96.39,240.62H64.66
							L48.8,268.1l15.86,27.48h31.73l15.86-27.48L96.39,240.62L96.39,240.62z"/>
					</g>
					<g>
						<linearGradient id="SVGID_47_" gradientUnits="userSpaceOnUse" x1="205.8879" y1="319.4543" x2="253.7213" y2="271.6209">
							<stop  offset="0" style="stop-color:#FBFBFB"/>
							<stop  offset="0.419" style="stop-color:#F5F5F5"/>
							<stop  offset="0.9893" style="stop-color:#E4E3E4"/>
							<stop  offset="1" style="stop-color:#E4E3E4"/>
						</linearGradient>
						<polygon class="st45" points="246.26,321.98 260.91,296.61 245.04,269.13 213.31,269.13 197.45,296.61 212.1,321.98 						"/>
						<path class="st4" d="M244.59,269.92L260,296.61l-14.2,24.59h-33.25l-14.2-24.59l15.41-26.69H244.59 M245.04,269.13h-31.73
							l-15.87,27.48l14.65,25.38h34.16l14.65-25.38L245.04,269.13L245.04,269.13z"/>
					</g>
					<g>
						<linearGradient id="SVGID_48_" gradientUnits="userSpaceOnUse" x1="255.6599" y1="291.1656" x2="303.4933" y2="243.3322">
							<stop  offset="0" style="stop-color:#FBFBFB"/>
							<stop  offset="0.419" style="stop-color:#F5F5F5"/>
							<stop  offset="0.9893" style="stop-color:#E4E3E4"/>
							<stop  offset="1" style="stop-color:#E4E3E4"/>
						</linearGradient>
						<polygon class="st46" points="294.59,240.62 262.86,240.62 247,268.1 262.86,295.58 294.59,295.58 310.46,268.1 						"/>
						<path class="st4" d="M294.14,241.41l15.41,26.69l-15.41,26.69h-30.82l-15.41-26.69l15.41-26.69H294.14 M294.59,240.62h-31.73
							L247,268.1l15.86,27.48h31.73l15.86-27.48L294.59,240.62L294.59,240.62z"/>
					</g>
					<g>
						<linearGradient id="SVGID_49_" gradientUnits="userSpaceOnUse" x1="251.5076" y1="344.0677" x2="299.3412" y2="296.234">
							<stop  offset="0" style="stop-color:#FBFBFB"/>
							<stop  offset="0.419" style="stop-color:#F5F5F5"/>
							<stop  offset="0.9893" style="stop-color:#E4E3E4"/>
							<stop  offset="1" style="stop-color:#E4E3E4"/>
						</linearGradient>
						<polygon class="st47" points="308.63,321.98 294.59,297.67 262.86,297.67 248.83,321.98 						"/>
						<path class="st4" d="M294.14,298.46l13.13,22.74h-57.08l13.13-22.74H294.14 M294.59,297.67h-31.73l-14.04,24.31h59.8
							L294.59,297.67L294.59,297.67z"/>
					</g>
					<g>
						<linearGradient id="SVGID_50_" gradientUnits="userSpaceOnUse" x1="304.9878" y1="319.4543" x2="352.8213" y2="271.6209">
							<stop  offset="0" style="stop-color:#FBFBFB"/>
							<stop  offset="0.419" style="stop-color:#F5F5F5"/>
							<stop  offset="0.9893" style="stop-color:#E4E3E4"/>
							<stop  offset="1" style="stop-color:#E4E3E4"/>
						</linearGradient>
						<polygon class="st48" points="345.36,321.98 360.01,296.61 344.14,269.13 312.41,269.13 296.55,296.61 311.2,321.98 						"/>
						<path class="st4" d="M343.69,269.92l15.41,26.69l-14.2,24.59h-33.25l-14.2-24.59l15.41-26.69H343.69 M344.14,269.13h-31.73
							l-15.86,27.48l14.65,25.38h34.16l14.65-25.38L344.14,269.13L344.14,269.13z"/>
					</g>
					<g>
						<linearGradient id="SVGID_51_" gradientUnits="userSpaceOnUse" x1="354.7599" y1="291.1656" x2="402.5933" y2="243.3322">
							<stop  offset="0" style="stop-color:#FBFBFB"/>
							<stop  offset="0.419" style="stop-color:#F5F5F5"/>
							<stop  offset="0.9893" style="stop-color:#E4E3E4"/>
							<stop  offset="1" style="stop-color:#E4E3E4"/>
						</linearGradient>
						<polygon class="st49" points="393.69,240.62 361.96,240.62 346.1,268.1 361.96,295.58 393.69,295.58 409.56,268.1 						"/>
						<path class="st4" d="M393.24,241.41l15.41,26.69l-15.41,26.69h-30.82l-15.41-26.69l15.41-26.69H393.24 M393.69,240.62h-31.73
							L346.1,268.1l15.86,27.48h31.73l15.86-27.48L393.69,240.62L393.69,240.62z"/>
					</g>
					<g>
						<linearGradient id="SVGID_52_" gradientUnits="userSpaceOnUse" x1="350.6075" y1="344.0677" x2="398.441" y2="296.2341">
							<stop  offset="0" style="stop-color:#FBFBFB"/>
							<stop  offset="0.419" style="stop-color:#F5F5F5"/>
							<stop  offset="0.9893" style="stop-color:#E4E3E4"/>
							<stop  offset="1" style="stop-color:#E4E3E4"/>
						</linearGradient>
						<polygon class="st50" points="407.73,321.98 393.69,297.67 361.96,297.67 347.93,321.98 						"/>
						<path class="st4" d="M393.24,298.46l13.13,22.74h-57.08l13.13-22.74H393.24 M393.69,297.67h-31.73l-14.04,24.31h59.8
							L393.69,297.67L393.69,297.67z"/>
					</g>
					<g>
						<linearGradient id="SVGID_53_" gradientUnits="userSpaceOnUse" x1="404.0877" y1="319.4543" x2="451.9211" y2="271.6209">
							<stop  offset="0" style="stop-color:#FBFBFB"/>
							<stop  offset="0.419" style="stop-color:#F5F5F5"/>
							<stop  offset="0.9893" style="stop-color:#E4E3E4"/>
							<stop  offset="1" style="stop-color:#E4E3E4"/>
						</linearGradient>
						<polygon class="st51" points="453.36,286.66 443.24,269.13 411.51,269.13 395.65,296.61 410.3,321.98 444.46,321.98 
							453.36,306.56 						"/>
						<path class="st4" d="M442.79,269.92l9.79,16.95v19.48L444,321.2h-33.25l-14.2-24.59l15.41-26.69H442.79 M443.24,269.13h-31.73
							l-15.86,27.48l14.65,25.38h34.16l8.9-15.42v-19.91L443.24,269.13L443.24,269.13z"/>
					</g>
					<g>
						<linearGradient id="SVGID_54_" gradientUnits="userSpaceOnUse" x1="442.0765" y1="279.3823" x2="489.9099" y2="231.5488">
							<stop  offset="0" style="stop-color:#FBFBFB"/>
							<stop  offset="0.419" style="stop-color:#F5F5F5"/>
							<stop  offset="0.9893" style="stop-color:#E4E3E4"/>
							<stop  offset="1" style="stop-color:#E4E3E4"/>
						</linearGradient>
						<polygon class="st52" points="453.36,253.96 445.2,268.1 453.36,282.24 						"/>
						<path class="st4" d="M452.57,256.89v22.41l-6.47-11.2L452.57,256.89 M453.36,253.96l-8.16,14.14l8.16,14.14V253.96
							L453.36,253.96z"/>
					</g>
					<g>
						<linearGradient id="SVGID_55_" gradientUnits="userSpaceOnUse" x1="437.75" y1="332.1103" x2="485.5835" y2="284.2768">
							<stop  offset="0" style="stop-color:#FBFBFB"/>
							<stop  offset="0.419" style="stop-color:#F5F5F5"/>
							<stop  offset="0.9893" style="stop-color:#E4E3E4"/>
							<stop  offset="1" style="stop-color:#E4E3E4"/>
						</linearGradient>
						<polygon class="st53" points="453.36,311.01 447.03,321.98 453.36,321.98 						"/>
						<path class="st4" d="M452.57,313.95v7.25h-4.19L452.57,313.95 M453.36,311.01l-6.33,10.97h6.33V311.01L453.36,311.01z"/>
					</g>
				</g>
			</g>
		</g>
	</g>
</g>
</svg>
