<?xml version="1.0" encoding="utf-8"?>
<!-- Generator: Adobe Illustrator 24.0.0, SVG Export Plug-In . SVG Version: 6.00 Build 0)  -->
<svg version="1.1" id="Layer_1" xmlns="http://www.w3.org/2000/svg" xmlns:xlink="http://www.w3.org/1999/xlink" x="0px" y="0px"
	 viewBox="0 0 561.6 288" style="enable-background:new 0 0 561.6 288;" xml:space="preserve">
<style type="text/css">
	.st0{clip-path:url(#SVGID_3_);}
	.st1{fill:#D9D9D9;}
	.st2{opacity:0.6;clip-path:url(#SVGID_3_);}
	.st3{fill:url(#SVGID_4_);}
	.st4{fill:url(#SVGID_5_);}
	.st5{fill:url(#SVGID_6_);}
	.st6{fill:#EDEDED;}
</style>
<g>
	<g>
		<defs>
			<rect id="SVGID_1_" y="0" width="561.6" height="288"/>
		</defs>
		<radialGradient id="SVGID_2_" cx="273.9968" cy="146.2677" r="393.1592" gradientUnits="userSpaceOnUse">
			<stop  offset="0" style="stop-color:#FFFFFF"/>
			<stop  offset="0.547" style="stop-color:#FEFEFE"/>
			<stop  offset="1" style="stop-color:#E6E6E6"/>
		</radialGradient>
		<use xlink:href="#SVGID_1_"  style="overflow:visible;fill:url(#SVGID_2_);"/>
		<clipPath id="SVGID_3_">
			<use xlink:href="#SVGID_1_"  style="overflow:visible;"/>
		</clipPath>
		<g class="st0">
			<g>
				<g>
					<rect x="-233.81" y="134.26" class="st1" width="398.69" height="0.82"/>
				</g>
				<g>
					<path class="st1" d="M-233.75,135.91c-0.68,0-1.24-0.55-1.24-1.24c0-0.68,0.55-1.24,1.24-1.24c0.68,0,1.24,0.55,1.24,1.24
						C-232.51,135.35-233.07,135.91-233.75,135.91z"/>
				</g>
				<g>
					<path class="st1" d="M164.81,135.91c0.68,0,1.24-0.55,1.24-1.24c0-0.68-0.55-1.24-1.24-1.24c-0.68,0-1.24,0.55-1.24,1.24
						C163.57,135.35,164.13,135.91,164.81,135.91z"/>
				</g>
			</g>
			<g>
				<g>
					<polygon class="st1" points="-138.71,118.51 -230.5,118.51 -230.5,117.69 -139.05,117.69 -108.39,87.04 -32.34,87.04 
						-32.34,87.86 -108.05,87.86 					"/>
				</g>
				<g>
					<path class="st1" d="M-230.44,119.34c-0.68,0-1.24-0.55-1.24-1.24c0-0.68,0.55-1.24,1.24-1.24c0.68,0,1.24,0.55,1.24,1.24
						C-229.2,118.79-229.76,119.34-230.44,119.34z"/>
				</g>
				<g>
					<path class="st1" d="M-32.4,88.69c0.68,0,1.24-0.55,1.24-1.24c0-0.68-0.55-1.24-1.24-1.24c-0.68,0-1.24,0.55-1.24,1.24
						C-33.64,88.13-33.08,88.69-32.4,88.69z"/>
				</g>
			</g>
			<g>
				<g>
					<polygon class="st1" points="-7.79,113.95 -109.94,113.95 -109.94,113.13 -8.13,113.13 37.24,67.77 214.35,67.77 223.98,58.13 
						272.28,58.13 288.8,74.66 358.45,74.66 371.05,87.24 370.46,87.83 358.11,75.48 288.46,75.48 271.94,58.96 224.32,58.96 
						214.69,68.59 37.58,68.59 					"/>
				</g>
				<g>
					<path class="st1" d="M-109.88,114.78c-0.68,0-1.24-0.55-1.24-1.24c0-0.68,0.55-1.24,1.24-1.24c0.68,0,1.24,0.55,1.24,1.24
						C-108.64,114.23-109.19,114.78-109.88,114.78z"/>
				</g>
				<g>
					<path class="st1" d="M369.83,88.37c0.48,0.48,1.27,0.48,1.75,0c0.48-0.48,0.48-1.27,0-1.75c-0.48-0.48-1.27-0.48-1.75,0
						C369.35,87.1,369.35,87.88,369.83,88.37z"/>
				</g>
			</g>
			<g>
				<g>
					<polygon class="st1" points="210.97,103.06 24.71,103.06 24.71,102.23 210.63,102.23 228.02,84.83 304.07,84.83 304.07,85.65 
						228.36,85.65 					"/>
				</g>
				<g>
					<path class="st1" d="M24.77,103.89c-0.68,0-1.24-0.55-1.24-1.24c0-0.68,0.55-1.24,1.24-1.24s1.24,0.55,1.24,1.24
						C26.01,103.33,25.45,103.89,24.77,103.89z"/>
				</g>
				<g>
					<path class="st1" d="M304.01,86.48c0.68,0,1.24-0.55,1.24-1.24c0-0.68-0.55-1.24-1.24-1.24c-0.68,0-1.24,0.55-1.24,1.24
						C302.77,85.93,303.33,86.48,304.01,86.48z"/>
				</g>
			</g>
			<g>
				<g>
					<polygon class="st1" points="-155.68,106.49 -216.83,106.49 -216.83,105.67 -156.03,105.67 -122.47,72.11 -65.3,72.11 
						-4.4,11.21 217.07,11.21 217.07,12.04 -4.06,12.04 -64.96,72.94 -122.13,72.94 					"/>
				</g>
				<g>
					<path class="st1" d="M-216.77,107.32c-0.68,0-1.24-0.55-1.24-1.24c0-0.68,0.55-1.24,1.24-1.24c0.68,0,1.24,0.55,1.24,1.24
						C-215.53,106.76-216.08,107.32-216.77,107.32z"/>
				</g>
				<g>
					<path class="st1" d="M217.01,12.86c0.68,0,1.24-0.55,1.24-1.24s-0.55-1.24-1.24-1.24c-0.68,0-1.24,0.55-1.24,1.24
						S216.33,12.86,217.01,12.86z"/>
				</g>
			</g>
			<g>
				<g>
					<polygon class="st1" points="-20.09,100.16 -20.67,99.57 25.43,53.47 114.5,53.47 131.28,36.7 253.22,36.7 261.82,45.29 
						325.31,45.29 340.83,60.81 340.24,61.39 324.97,46.11 261.48,46.11 252.88,37.52 131.62,37.52 114.84,54.29 25.77,54.29 					
						"/>
				</g>
				<g>
					<path class="st1" d="M-19.46,100.7c-0.48,0.48-1.27,0.48-1.75,0c-0.48-0.48-0.48-1.27,0-1.75c0.48-0.48,1.27-0.48,1.75,0
						C-18.98,99.43-18.98,100.21-19.46,100.7z"/>
				</g>
				<g>
					<path class="st1" d="M339.62,61.93c0.48,0.48,1.27,0.48,1.75,0c0.48-0.48,0.48-1.27,0-1.75c-0.48-0.48-1.27-0.48-1.75,0
						C339.13,60.67,339.13,61.45,339.62,61.93z"/>
				</g>
			</g>
			<g>
				<g>
					<polygon class="st1" points="-27.55,75.3 -28.13,74.72 12.17,34.42 92.96,34.42 104.36,23.03 281.05,23.03 290.35,13.73 
						290.94,14.31 281.39,23.86 104.7,23.86 93.31,35.24 12.51,35.24 					"/>
				</g>
				<g>
					<path class="st1" d="M-26.92,75.85c-0.48,0.48-1.27,0.48-1.75,0c-0.48-0.48-0.48-1.27,0-1.75c0.48-0.48,1.27-0.48,1.75,0
						C-26.43,74.58-26.43,75.36-26.92,75.85z"/>
				</g>
				<g>
					<path class="st1" d="M291.48,14.94c0.48-0.48,0.48-1.27,0-1.75c-0.48-0.48-1.27-0.48-1.75,0c-0.48,0.48-0.48,1.27,0,1.75
						S290.99,15.42,291.48,14.94z"/>
				</g>
			</g>
			<g>
				<g>
					<rect x="41.69" y="89.52" class="st1" width="160.46" height="0.82"/>
				</g>
				<g>
					<path class="st1" d="M41.76,91.17c-0.68,0-1.24-0.55-1.24-1.24c0-0.68,0.55-1.24,1.24-1.24s1.24,0.55,1.24,1.24
						C42.99,90.62,42.44,91.17,41.76,91.17z"/>
				</g>
				<g>
					<path class="st1" d="M202.1,91.17c0.68,0,1.24-0.55,1.24-1.24c0-0.68-0.55-1.24-1.24-1.24s-1.24,0.55-1.24,1.24
						C200.86,90.62,201.41,91.17,202.1,91.17z"/>
				</g>
			</g>
			<g>
				<g>
					<polygon class="st1" points="285.43,223.95 115.54,223.95 71.42,179.83 -127.46,179.83 -155.64,146.69 -218.9,146.69 
						-218.9,145.86 -155.25,145.86 -127.08,179.01 71.76,179.01 115.88,223.13 285.43,223.13 					"/>
				</g>
				<g>
					<path class="st1" d="M-218.84,147.51c-0.68,0-1.24-0.55-1.24-1.24c0-0.68,0.55-1.24,1.24-1.24c0.68,0,1.24,0.55,1.24,1.24
						C-217.6,146.96-218.15,147.51-218.84,147.51z"/>
				</g>
				<g>
					<path class="st1" d="M285.37,224.78c0.68,0,1.24-0.55,1.24-1.24c0-0.68-0.55-1.24-1.24-1.24c-0.68,0-1.24,0.55-1.24,1.24
						C284.13,224.22,284.68,224.78,285.37,224.78z"/>
				</g>
			</g>
			<g>
				<g>
					<polygon class="st1" points="303.66,188.54 160.49,188.54 131.9,159.95 -127.97,159.95 -127.97,159.12 132.24,159.12 
						160.83,187.71 303.66,187.71 					"/>
				</g>
				<g>
					<path class="st1" d="M-127.9,160.77c-0.68,0-1.24-0.55-1.24-1.24c0-0.68,0.55-1.24,1.24-1.24c0.68,0,1.24,0.55,1.24,1.24
						C-126.66,160.22-127.22,160.77-127.9,160.77z"/>
				</g>
				<g>
					<path class="st1" d="M303.59,189.36c0.68,0,1.24-0.55,1.24-1.24c0-0.68-0.55-1.24-1.24-1.24c-0.68,0-1.24,0.55-1.24,1.24
						C302.36,188.81,302.91,189.36,303.59,189.36z"/>
				</g>
			</g>
			<g>
				<g>
					<polygon class="st1" points="323.96,208.42 223.05,208.42 213.73,199.1 134.81,199.1 103.83,168.12 104.41,167.54 
						135.15,198.28 214.07,198.28 223.39,207.6 323.96,207.6 					"/>
				</g>
				<g>
					<circle class="st1" cx="104.16" cy="167.87" r="1.24"/>
				</g>
				<g>
					<path class="st1" d="M323.9,209.25c0.68,0,1.24-0.55,1.24-1.24c0-0.68-0.55-1.24-1.24-1.24c-0.68,0-1.24,0.55-1.24,1.24
						C322.66,208.7,323.22,209.25,323.9,209.25z"/>
				</g>
			</g>
			<g>
				<g>
					<rect x="-5.53" y="147.32" class="st1" width="162.95" height="0.82"/>
				</g>
				<g>
					<path class="st1" d="M-5.47,148.97c-0.68,0-1.24-0.55-1.24-1.24c0-0.68,0.55-1.24,1.24-1.24c0.68,0,1.24,0.55,1.24,1.24
						C-4.23,148.42-4.79,148.97-5.47,148.97z"/>
				</g>
				<g>
					<path class="st1" d="M157.35,148.97c0.68,0,1.24-0.55,1.24-1.24c0-0.68-0.55-1.24-1.24-1.24c-0.68,0-1.24,0.55-1.24,1.24
						C156.11,148.42,156.67,148.97,157.35,148.97z"/>
				</g>
			</g>
			<g>
				<g>
					<polygon class="st1" points="222.15,173.61 160.21,173.61 160.21,172.79 221.81,172.79 246.67,147.94 360.63,147.94 
						360.63,148.76 247.01,148.76 					"/>
				</g>
				<g>
					<circle class="st1" cx="160.27" cy="173.2" r="1.24"/>
				</g>
				<g>
					<path class="st1" d="M360.56,149.59c0.68,0,1.24-0.55,1.24-1.24c0-0.68-0.55-1.24-1.24-1.24s-1.24,0.55-1.24,1.24
						C359.32,149.04,359.88,149.59,360.56,149.59z"/>
				</g>
			</g>
			<g>
				<g>
					<polygon class="st1" points="327.07,133.22 218.7,133.22 205.65,120.17 77.01,120.17 68.22,111.38 68.81,110.79 77.35,119.35 
						205.99,119.35 219.04,132.4 327.07,132.4 					"/>
				</g>
				<g>
					<path class="st1" d="M67.68,112c-0.48-0.48-0.48-1.27,0-1.75c0.48-0.48,1.27-0.48,1.75,0c0.48,0.48,0.48,1.27,0,1.75
						C68.95,112.49,68.17,112.49,67.68,112z"/>
				</g>
				<g>
					<path class="st1" d="M327.01,134.05c0.68,0,1.24-0.55,1.24-1.24c0-0.68-0.55-1.24-1.24-1.24c-0.68,0-1.24,0.55-1.24,1.24
						C325.77,133.49,326.33,134.05,327.01,134.05z"/>
				</g>
			</g>
			<g>
				<g>
					<rect x="-75.45" y="122.15" class="st1" width="88.07" height="0.82"/>
				</g>
				<g>
					<path class="st1" d="M-75.39,123.8c-0.68,0-1.24-0.55-1.24-1.24c0-0.68,0.55-1.24,1.24-1.24c0.68,0,1.24,0.55,1.24,1.24
						C-74.15,123.25-74.7,123.8-75.39,123.8z"/>
				</g>
				<g>
					<path class="st1" d="M12.56,123.8c0.68,0,1.24-0.55,1.24-1.24c0-0.68-0.55-1.24-1.24-1.24c-0.68,0-1.24,0.55-1.24,1.24
						C11.32,123.25,11.87,123.8,12.56,123.8z"/>
				</g>
			</g>
			<g>
				<g>
					<polygon class="st1" points="375.85,116.86 291,116.86 276.5,102.37 231.64,102.37 231.64,101.54 276.84,101.54 291.34,116.03 
						375.51,116.03 387.97,103.58 388.55,104.16 					"/>
				</g>
				<g>
					<path class="st1" d="M231.7,103.19c-0.68,0-1.24-0.55-1.24-1.24c0-0.68,0.55-1.24,1.24-1.24c0.68,0,1.24,0.55,1.24,1.24
						C232.94,102.64,232.38,103.19,231.7,103.19z"/>
				</g>
				<g>
					<path class="st1" d="M389.09,104.79c0.48-0.48,0.48-1.27,0-1.75c-0.48-0.48-1.27-0.48-1.75,0c-0.48,0.48-0.48,1.27,0,1.75
						C387.82,105.27,388.61,105.27,389.09,104.79z"/>
				</g>
			</g>
			<g>
				<g>
					<polygon class="st1" points="45.55,205.51 -81.05,205.51 -98.43,188.14 -97.85,187.55 -80.71,204.68 45.55,204.68 					"/>
				</g>
				<g>
					<path class="st1" d="M-98.97,188.77c-0.48-0.48-0.48-1.27,0-1.75c0.48-0.48,1.27-0.48,1.75,0c0.48,0.48,0.48,1.27,0,1.75
						C-97.7,189.25-98.49,189.25-98.97,188.77z"/>
				</g>
				<g>
					<path class="st1" d="M45.49,206.34c0.68,0,1.24-0.55,1.24-1.24c0-0.68-0.55-1.24-1.24-1.24c-0.68,0-1.24,0.55-1.24,1.24
						C44.25,205.78,44.81,206.34,45.49,206.34z"/>
				</g>
			</g>
			<g>
				<g>
					<polygon class="st1" points="196.05,275.53 -65.71,275.53 -184.89,156.37 -184.31,155.78 -65.37,274.71 195.71,274.71 
						219.95,250.48 365.56,250.48 389.69,226.33 418.42,226.33 418.42,227.16 390.04,227.16 365.91,251.3 220.29,251.3 					"/>
				</g>
				<g>
					<path class="st1" d="M-185.43,156.99c-0.48-0.48-0.48-1.27,0-1.75c0.48-0.48,1.27-0.48,1.75,0c0.48,0.48,0.48,1.27,0,1.75
						C-184.17,157.48-184.95,157.48-185.43,156.99z"/>
				</g>
				<g>
					<path class="st1" d="M418.36,227.98c0.68,0,1.24-0.55,1.24-1.24c0-0.68-0.55-1.24-1.24-1.24c-0.68,0-1.24,0.55-1.24,1.24
						C417.12,227.43,417.68,227.98,418.36,227.98z"/>
				</g>
			</g>
			<g>
				<g>
					<polygon class="st1" points="198.49,251.5 62.72,251.5 52.36,241.14 -85.48,241.14 -85.48,240.32 52.7,240.32 63.06,250.68 
						198.49,250.68 					"/>
				</g>
				<g>
					<path class="st1" d="M-85.42,241.97c-0.68,0-1.24-0.55-1.24-1.24c0-0.68,0.55-1.24,1.24-1.24c0.68,0,1.24,0.55,1.24,1.24
						C-84.18,241.41-84.73,241.97-85.42,241.97z"/>
				</g>
				<g>
					<path class="st1" d="M198.43,252.33c0.68,0,1.24-0.55,1.24-1.24c0-0.68-0.55-1.24-1.24-1.24c-0.68,0-1.24,0.55-1.24,1.24
						C197.19,251.77,197.75,252.33,198.43,252.33z"/>
				</g>
			</g>
			<g>
				<g>
					<polygon class="st1" points="319.72,234.98 87.11,234.98 77.64,225.51 -86.74,225.51 -111.91,200.34 -129.81,200.34 
						-129.81,199.52 -111.57,199.52 -86.4,224.69 77.98,224.69 87.45,234.15 319.38,234.15 336.08,217.46 380.9,217.46 
						401.99,196.37 454.23,196.37 462.89,187.71 463.47,188.3 454.57,197.2 402.33,197.2 381.24,218.28 336.42,218.28 					"/>
				</g>
				<g>
					<path class="st1" d="M-129.75,201.17c-0.68,0-1.24-0.55-1.24-1.24c0-0.68,0.55-1.24,1.24-1.24c0.68,0,1.24,0.55,1.24,1.24
						C-128.51,200.61-129.07,201.17-129.75,201.17z"/>
				</g>
				<g>
					<path class="st1" d="M464.02,188.93c0.48-0.48,0.48-1.27,0-1.75c-0.48-0.48-1.27-0.48-1.75,0c-0.48,0.48-0.48,1.27,0,1.75
						C462.75,189.41,463.53,189.41,464.02,188.93z"/>
				</g>
			</g>
			<g>
				<g>
					<polygon class="st1" points="372.54,179.83 313.16,179.83 294.52,161.19 244.57,161.19 244.57,160.37 294.86,160.37 
						313.5,179.01 372.2,179.01 384.56,166.66 385.14,167.24 					"/>
				</g>
				<g>
					<path class="st1" d="M244.63,162.02c-0.68,0-1.24-0.55-1.24-1.24c0-0.68,0.55-1.24,1.24-1.24c0.68,0,1.24,0.55,1.24,1.24
						C245.87,161.46,245.31,162.02,244.63,162.02z"/>
				</g>
				<g>
					<path class="st1" d="M385.68,167.87c0.48-0.48,0.48-1.27,0-1.75c-0.48-0.48-1.27-0.48-1.75,0c-0.48,0.48-0.48,1.27,0,1.75
						C384.41,168.35,385.2,168.35,385.68,167.87z"/>
				</g>
			</g>
			<g>
				<g>
					<polygon class="st1" points="384.2,199.66 345.43,199.66 331.46,185.7 332.04,185.12 345.77,198.84 384.2,198.84 					"/>
				</g>
				<g>
					<path class="st1" d="M330.92,186.33c-0.48-0.48-0.48-1.27,0-1.75s1.27-0.48,1.75,0c0.48,0.48,0.48,1.27,0,1.75
						C332.19,186.81,331.4,186.81,330.92,186.33z"/>
				</g>
				<g>
					<path class="st1" d="M384.14,200.49c0.68,0,1.24-0.55,1.24-1.24c0-0.68-0.55-1.24-1.24-1.24c-0.68,0-1.24,0.55-1.24,1.24
						C382.9,199.94,383.45,200.49,384.14,200.49z"/>
				</g>
			</g>
		</g>
		<g class="st2">
			<g>
				<g>
					<rect x="-234.09" y="136.28" class="st1" width="305.9" height="0.63"/>
				</g>
				<g>
					<circle class="st1" cx="-234.04" cy="136.6" r="0.95"/>
				</g>
				<g>
					<path class="st1" d="M71.76,137.55c0.53,0,0.95-0.43,0.95-0.95c0-0.52-0.43-0.95-0.95-0.95s-0.95,0.43-0.95,0.95
						C70.81,137.12,71.24,137.55,71.76,137.55z"/>
				</g>
			</g>
			<g>
				<g>
					<polygon class="st1" points="-161.12,124.2 -231.55,124.2 -231.55,123.57 -161.38,123.57 -137.85,100.05 -79.5,100.05 
						-79.5,100.68 -137.59,100.68 					"/>
				</g>
				<g>
					<path class="st1" d="M-231.5,124.84c-0.52,0-0.95-0.43-0.95-0.95s0.43-0.95,0.95-0.95c0.52,0,0.95,0.43,0.95,0.95
						S-230.97,124.84-231.5,124.84z"/>
				</g>
				<g>
					<path class="st1" d="M-79.55,101.32c0.53,0,0.95-0.43,0.95-0.95c0-0.52-0.43-0.95-0.95-0.95s-0.95,0.43-0.95,0.95
						C-80.5,100.89-80.07,101.32-79.55,101.32z"/>
				</g>
			</g>
			<g>
				<g>
					<polygon class="st1" points="-60.67,120.7 -139.04,120.7 -139.04,120.07 -60.93,120.07 -26.12,85.27 109.77,85.27 
						117.16,77.87 154.22,77.87 166.89,90.55 220.33,90.55 230,100.21 229.55,100.66 220.07,91.18 166.63,91.18 153.96,78.51 
						117.42,78.51 110.03,85.9 -25.86,85.9 					"/>
				</g>
				<g>
					<circle class="st1" cx="-139" cy="120.39" r="0.95"/>
				</g>
				<g>
					<path class="st1" d="M229.07,101.07c0.37,0.37,0.97,0.37,1.34,0c0.37-0.37,0.37-0.97,0-1.34c-0.37-0.37-0.97-0.37-1.34,0
						C228.7,100.1,228.7,100.7,229.07,101.07z"/>
				</g>
			</g>
			<g>
				<g>
					<polygon class="st1" points="107.17,112.34 -35.74,112.34 -35.74,111.71 106.91,111.71 120.26,98.36 178.61,98.36 
						178.61,98.99 120.52,98.99 					"/>
				</g>
				<g>
					<circle class="st1" cx="-35.69" cy="112.03" r="0.95"/>
				</g>
				<g>
					<path class="st1" d="M178.56,99.62c0.52,0,0.95-0.43,0.95-0.95c0-0.53-0.43-0.95-0.95-0.95c-0.53,0-0.95,0.43-0.95,0.95
						C177.61,99.2,178.04,99.62,178.56,99.62z"/>
				</g>
			</g>
			<g>
				<g>
					<polygon class="st1" points="-174.14,114.98 -221.06,114.98 -221.06,114.35 -174.4,114.35 -148.66,88.6 -104.8,88.6 
						-58.07,41.88 111.86,41.88 111.86,42.51 -57.81,42.51 -104.53,89.24 -148.4,89.24 					"/>
				</g>
				<g>
					<circle class="st1" cx="-221.01" cy="114.66" r="0.95"/>
				</g>
				<g>
					<circle class="st1" cx="111.81" cy="42.19" r="0.95"/>
				</g>
			</g>
			<g>
				<g>
					<polygon class="st1" points="-70.11,110.12 -70.55,109.67 -35.18,74.3 33.16,74.3 46.03,61.43 139.6,61.43 146.19,68.02 
						194.9,68.02 206.81,79.93 206.36,80.38 194.64,68.65 145.93,68.65 139.33,62.06 46.3,62.06 33.42,74.93 -34.92,74.93 					"/>
				</g>
				<g>
					<path class="st1" d="M-69.62,110.53c-0.37,0.37-0.97,0.37-1.34,0c-0.37-0.37-0.37-0.97,0-1.34c0.37-0.37,0.97-0.37,1.34,0
						C-69.25,109.56-69.25,110.16-69.62,110.53z"/>
				</g>
				<g>
					<path class="st1" d="M205.88,80.79c0.37,0.37,0.97,0.37,1.34,0c0.37-0.37,0.37-0.97,0-1.34c-0.37-0.37-0.97-0.37-1.34,0
						C205.51,79.82,205.51,80.42,205.88,80.79z"/>
				</g>
			</g>
			<g>
				<g>
					<polygon class="st1" points="-75.83,91.05 -76.27,90.6 -45.36,59.68 16.64,59.68 25.38,50.94 160.95,50.94 168.08,43.8 
						168.53,44.25 161.21,51.58 25.64,51.58 16.9,60.31 -45.09,60.31 					"/>
				</g>
				<g>
					<path class="st1" d="M-75.34,91.47c-0.37,0.37-0.97,0.37-1.34,0c-0.37-0.37-0.37-0.97,0-1.34c0.37-0.37,0.97-0.37,1.34,0
						C-74.97,90.49-74.97,91.09-75.34,91.47z"/>
				</g>
				<g>
					<path class="st1" d="M168.95,44.73c0.37-0.37,0.37-0.97,0-1.34c-0.37-0.37-0.97-0.37-1.34,0c-0.37,0.37-0.37,0.97,0,1.34
						C167.97,45.1,168.58,45.1,168.95,44.73z"/>
				</g>
			</g>
			<g>
				<g>
					<rect x="-22.7" y="101.96" class="st1" width="123.12" height="0.63"/>
				</g>
				<g>
					<path class="st1" d="M-22.66,103.22c-0.52,0-0.95-0.43-0.95-0.95c0-0.53,0.43-0.95,0.95-0.95c0.53,0,0.95,0.43,0.95,0.95
						C-21.7,102.8-22.13,103.22-22.66,103.22z"/>
				</g>
				<g>
					<path class="st1" d="M100.37,103.22c0.53,0,0.95-0.43,0.95-0.95c0-0.53-0.43-0.95-0.95-0.95c-0.52,0-0.95,0.43-0.95,0.95
						C99.42,102.8,99.84,103.22,100.37,103.22z"/>
				</g>
			</g>
			<g>
				<g>
					<polygon class="st1" points="164.31,205.1 33.96,205.1 0.1,171.25 -152.49,171.25 -174.1,145.82 -222.64,145.82 
						-222.64,145.19 -173.81,145.19 -152.2,170.62 0.37,170.62 34.22,204.47 164.31,204.47 					"/>
				</g>
				<g>
					<path class="st1" d="M-222.6,146.45c-0.52,0-0.95-0.43-0.95-0.95c0-0.52,0.43-0.95,0.95-0.95c0.52,0,0.95,0.43,0.95,0.95
						C-221.65,146.03-222.07,146.45-222.6,146.45z"/>
				</g>
				<g>
					<circle class="st1" cx="164.26" cy="204.79" r="0.95"/>
				</g>
			</g>
			<g>
				<g>
					<polygon class="st1" points="178.29,177.93 68.45,177.93 46.51,155.99 -152.87,155.99 -152.87,155.36 46.77,155.36 
						68.71,177.3 178.29,177.3 					"/>
				</g>
				<g>
					<path class="st1" d="M-152.83,156.63c-0.53,0-0.95-0.43-0.95-0.95c0-0.53,0.43-0.95,0.95-0.95c0.52,0,0.95,0.43,0.95,0.95
						C-151.88,156.2-152.3,156.63-152.83,156.63z"/>
				</g>
				<g>
					<path class="st1" d="M178.24,178.56c0.52,0,0.95-0.43,0.95-0.95c0-0.53-0.43-0.95-0.95-0.95c-0.53,0-0.95,0.43-0.95,0.95
						C177.29,178.14,177.72,178.56,178.24,178.56z"/>
				</g>
			</g>
			<g>
				<g>
					<polygon class="st1" points="193.87,193.19 116.45,193.19 109.29,186.03 48.74,186.03 24.97,162.26 25.42,161.82 49,185.4 
						109.55,185.4 116.71,192.56 193.87,192.56 					"/>
				</g>
				<g>
					<path class="st1" d="M24.56,162.75c-0.37-0.37-0.37-0.97,0-1.34c0.37-0.37,0.97-0.37,1.34,0c0.37,0.37,0.37,0.97,0,1.34
						S24.93,163.12,24.56,162.75z"/>
				</g>
				<g>
					<path class="st1" d="M193.82,193.82c0.52,0,0.95-0.43,0.95-0.95c0-0.52-0.43-0.95-0.95-0.95c-0.52,0-0.95,0.43-0.95,0.95
						C192.87,193.4,193.3,193.82,193.82,193.82z"/>
				</g>
			</g>
			<g>
				<g>
					<rect x="-58.94" y="146.3" class="st1" width="125.02" height="0.63"/>
				</g>
				<g>
					<path class="st1" d="M-58.89,147.57c-0.53,0-0.95-0.43-0.95-0.95c0-0.52,0.43-0.95,0.95-0.95c0.52,0,0.95,0.43,0.95,0.95
						C-57.94,147.15-58.37,147.57-58.89,147.57z"/>
				</g>
				<g>
					<circle class="st1" cx="66.04" cy="146.62" r="0.95"/>
				</g>
			</g>
			<g>
				<g>
					<polygon class="st1" points="115.76,166.48 68.23,166.48 68.23,165.85 115.49,165.85 134.57,146.78 222,146.78 222,147.41 
						134.83,147.41 					"/>
				</g>
				<g>
					<circle class="st1" cx="68.28" cy="166.16" r="0.95"/>
				</g>
				<g>
					<circle class="st1" cx="221.95" cy="147.1" r="0.95"/>
				</g>
			</g>
			<g>
				<g>
					<polygon class="st1" points="196.26,135.49 113.11,135.49 103.1,125.48 4.39,125.48 -2.35,118.73 -1.9,118.28 4.66,124.84 
						103.36,124.84 113.37,134.85 196.26,134.85 					"/>
				</g>
				<g>
					<path class="st1" d="M-2.76,119.21c-0.37-0.37-0.37-0.97,0-1.34c0.37-0.37,0.97-0.37,1.34,0c0.37,0.37,0.37,0.97,0,1.34
						C-1.79,119.58-2.39,119.58-2.76,119.21z"/>
				</g>
				<g>
					<path class="st1" d="M196.21,136.12c0.53,0,0.95-0.43,0.95-0.95c0-0.53-0.43-0.95-0.95-0.95c-0.52,0-0.95,0.43-0.95,0.95
						C195.26,135.7,195.68,136.12,196.21,136.12z"/>
				</g>
			</g>
			<g>
				<g>
					<rect x="-112.58" y="126.99" class="st1" width="67.57" height="0.63"/>
				</g>
				<g>
					<path class="st1" d="M-112.53,128.26c-0.53,0-0.95-0.43-0.95-0.95c0-0.52,0.43-0.95,0.95-0.95s0.95,0.43,0.95,0.95
						C-111.58,127.83-112.01,128.26-112.53,128.26z"/>
				</g>
				<g>
					<path class="st1" d="M-45.06,128.26c0.52,0,0.95-0.43,0.95-0.95c0-0.52-0.43-0.95-0.95-0.95c-0.52,0-0.95,0.43-0.95,0.95
						C-46.01,127.83-45.58,128.26-45.06,128.26z"/>
				</g>
			</g>
			<g>
				<g>
					<polygon class="st1" points="233.68,122.93 168.58,122.93 157.45,111.81 123.03,111.81 123.03,111.18 157.72,111.18 
						168.84,122.3 233.42,122.3 242.98,112.74 243.43,113.19 					"/>
				</g>
				<g>
					<circle class="st1" cx="123.08" cy="111.5" r="0.95"/>
				</g>
				<g>
					<path class="st1" d="M243.84,113.67c0.37-0.37,0.37-0.97,0-1.34s-0.97-0.37-1.34,0c-0.37,0.37-0.37,0.97,0,1.34
						C242.87,114.04,243.47,114.04,243.84,113.67z"/>
				</g>
			</g>
			<g>
				<g>
					<polygon class="st1" points="-19.74,190.95 -116.88,190.95 -130.21,177.62 -129.77,177.18 -116.61,190.32 -19.74,190.32 					
						"/>
				</g>
				<g>
					<path class="st1" d="M-130.63,178.1c-0.37-0.37-0.37-0.97,0-1.34c0.37-0.37,0.97-0.37,1.34,0c0.37,0.37,0.37,0.97,0,1.34
						C-129.66,178.48-130.26,178.48-130.63,178.1z"/>
				</g>
				<g>
					<path class="st1" d="M-19.79,191.59c0.52,0,0.95-0.43,0.95-0.95c0-0.53-0.43-0.95-0.95-0.95s-0.95,0.43-0.95,0.95
						C-20.74,191.16-20.31,191.59-19.79,191.59z"/>
				</g>
			</g>
			<g>
				<g>
					<polygon class="st1" points="95.73,244.68 -105.11,244.68 -196.55,153.25 -196.11,152.8 -104.85,244.04 95.47,244.04 
						114.07,225.45 225.79,225.45 244.3,206.93 266.35,206.93 266.35,207.56 244.57,207.56 226.05,226.08 114.33,226.08 					"/>
				</g>
				<g>
					<path class="st1" d="M-196.97,153.73c-0.37-0.37-0.37-0.97,0-1.34c0.37-0.37,0.97-0.37,1.34,0c0.37,0.37,0.37,0.97,0,1.34
						S-196.6,154.1-196.97,153.73z"/>
				</g>
				<g>
					<path class="st1" d="M266.3,208.19c0.53,0,0.95-0.43,0.95-0.95c0-0.53-0.43-0.95-0.95-0.95c-0.52,0-0.95,0.43-0.95,0.95
						C265.35,207.77,265.78,208.19,266.3,208.19z"/>
				</g>
			</g>
			<g>
				<g>
					<polygon class="st1" points="97.6,226.24 -6.57,226.24 -14.52,218.29 -120.28,218.29 -120.28,217.66 -14.26,217.66 
						-6.31,225.61 97.6,225.61 					"/>
				</g>
				<g>
					<path class="st1" d="M-120.23,218.92c-0.53,0-0.95-0.43-0.95-0.95c0-0.52,0.43-0.95,0.95-0.95c0.52,0,0.95,0.43,0.95,0.95
						C-119.28,218.5-119.7,218.92-120.23,218.92z"/>
				</g>
				<g>
					<path class="st1" d="M97.56,226.87c0.53,0,0.95-0.43,0.95-0.95c0-0.52-0.43-0.95-0.95-0.95c-0.52,0-0.95,0.43-0.95,0.95
						C96.6,226.45,97.03,226.87,97.56,226.87z"/>
				</g>
			</g>
			<g>
				<g>
					<polygon class="st1" points="190.61,213.56 12.14,213.56 4.88,206.3 -121.24,206.3 -140.56,186.99 -154.29,186.99 
						-154.29,186.35 -140.29,186.35 -120.98,205.67 5.14,205.67 12.41,212.93 190.35,212.93 203.17,200.12 237.56,200.12 
						253.74,183.94 293.82,183.94 300.47,177.3 300.91,177.74 294.08,184.57 254,184.57 237.82,200.75 203.43,200.75 					"/>
				</g>
				<g>
					<path class="st1" d="M-154.24,187.62c-0.52,0-0.95-0.43-0.95-0.95c0-0.53,0.43-0.95,0.95-0.95c0.52,0,0.95,0.43,0.95,0.95
						C-153.29,187.2-153.72,187.62-154.24,187.62z"/>
				</g>
				<g>
					<path class="st1" d="M301.33,178.23c0.37-0.37,0.37-0.97,0-1.34c-0.37-0.37-0.97-0.37-1.34,0c-0.37,0.37-0.37,0.97,0,1.34
						C300.35,178.6,300.96,178.6,301.33,178.23z"/>
				</g>
			</g>
			<g>
				<g>
					<polygon class="st1" points="231.15,171.25 185.59,171.25 171.28,156.95 132.95,156.95 132.95,156.31 171.54,156.31 
						185.85,170.62 230.88,170.62 240.36,161.14 240.81,161.59 					"/>
				</g>
				<g>
					<path class="st1" d="M133,157.58c-0.52,0-0.95-0.43-0.95-0.95c0-0.52,0.43-0.95,0.95-0.95c0.52,0,0.95,0.43,0.95,0.95
						C133.95,157.15,133.53,157.58,133,157.58z"/>
				</g>
				<g>
					<path class="st1" d="M241.22,162.07c0.37-0.37,0.37-0.97,0-1.34s-0.97-0.37-1.34,0c-0.37,0.37-0.37,0.97,0,1.34
						S240.85,162.44,241.22,162.07z"/>
				</g>
			</g>
			<g>
				<g>
					<polygon class="st1" points="240.09,186.47 210.34,186.47 199.62,175.75 200.07,175.3 210.61,185.83 240.09,185.83 					"/>
				</g>
				<g>
					<path class="st1" d="M199.21,176.23c-0.37-0.37-0.37-0.97,0-1.34c0.37-0.37,0.97-0.37,1.34,0c0.37,0.37,0.37,0.97,0,1.34
						C200.18,176.6,199.58,176.6,199.21,176.23z"/>
				</g>
				<g>
					<circle class="st1" cx="240.04" cy="186.15" r="0.95"/>
				</g>
			</g>
		</g>
	</g>
	<radialGradient id="SVGID_4_" cx="118.6603" cy="162.0367" r="97.3397" gradientUnits="userSpaceOnUse">
		<stop  offset="0.6931" style="stop-color:#CDCDCD"/>
		<stop  offset="1" style="stop-color:#FFFFFF"/>
	</radialGradient>
	<circle class="st3" cx="118.66" cy="162.04" r="97.34"/>
	<linearGradient id="SVGID_5_" gradientUnits="userSpaceOnUse" x1="161.755" y1="102.5011" x2="-14.5859" y2="278.8419">
		<stop  offset="0" style="stop-color:#FFFFFF"/>
		<stop  offset="1" style="stop-color:#E6E6E6"/>
	</linearGradient>
	<circle class="st4" cx="118.66" cy="145.6" r="94.22"/>
	<linearGradient id="SVGID_6_" gradientUnits="userSpaceOnUse" x1="66.9824" y1="197.2737" x2="319.7828" y2="-55.5268">
		<stop  offset="0" style="stop-color:#FFFFFF"/>
		<stop  offset="1" style="stop-color:#E6E6E6"/>
	</linearGradient>
	<circle class="st5" cx="118.66" cy="145.6" r="92.46"/>
	<path class="st6" d="M118.66,64.7c44.68,0,80.9,36.22,80.9,80.9s-36.22,80.9-80.9,80.9s-80.9-36.22-80.9-80.9
		S73.98,64.7,118.66,64.7 M118.66,63.95c-45.02,0-81.65,36.63-81.65,81.65s36.63,81.65,81.65,81.65c45.02,0,81.65-36.63,81.65-81.65
		S163.68,63.95,118.66,63.95L118.66,63.95z"/>
</g>
</svg>
