<?xml version="1.0" encoding="utf-8"?>
<!-- Generator: Adobe Illustrator 27.2.0, SVG Export Plug-In . SVG Version: 6.00 Build 0)  -->
<svg version="1.1" id="Layer_2_00000121277415455208587420000016645308094581229749_"
	 xmlns="http://www.w3.org/2000/svg" xmlns:xlink="http://www.w3.org/1999/xlink" x="0px" y="0px" viewBox="0 0 1000 1000"
	 style="enable-background:new 0 0 1000 1000;" xml:space="preserve">
<style type="text/css">
	.st0{fill:#FFFFFF;stroke:#FFFFFF;stroke-width:22;stroke-linecap:round;stroke-miterlimit:10;}
</style>
<path class="st0" d="M512.5,632.9l78.5,82.8c3.3,2,7.7,1,9.7-2.4c0.4-0.7,0.7-1.4,0.9-2.2l73.1-426.4c0.2-0.7-0.3-1.4-1-1.5
	c-0.4-0.1-0.8,0-1.1,0.3L327.9,544.8c-3,2.5-3.4,7-0.9,10c0.5,0.6,1.1,1.1,1.8,1.5l108.4,30.7c2.7,1.6,6.1,1.3,8.4-0.8l103-92
	c0.4-0.3,1-0.3,1.3,0.1c0.2,0.2,0.3,0.6,0.2,0.9L528,576"/>
</svg>
